<svg viewBox="0 0 120 120" xmlns="http://www.w3.org/2000/svg">
  <defs>
    <linearGradient id="skinI" x1="0%" y1="0%" x2="0%" y2="100%">
      <stop offset="0%" style="stop-color:#D4A878;stop-opacity:1" />
      <stop offset="100%" style="stop-color:#C89864;stop-opacity:1" />
    </linearGradient>
    <radialGradient id="bgI" cx="50%" cy="50%" r="50%">
      <stop offset="0%" style="stop-color:#F59E0B;stop-opacity:0.2" />
      <stop offset="100%" style="stop-color:#0A0A0E;stop-opacity:1" />
    </radialGradient>
    <linearGradient id="hairI" x1="0%" y1="0%" x2="0%" y2="100%">
      <stop offset="0%" style="stop-color:#1A1A2E;stop-opacity:1" />
      <stop offset="100%" style="stop-color:#0A0A1E;stop-opacity:1" />
    </linearGradient>
  </defs>
  <circle cx="60" cy="60" r="60" fill="url(#bgI)"/>
  <!-- Hair long straight black past shoulders -->
  <path d="M 25 32 Q 25 25 60 24 Q 95 25 95 32 Q 95 50 90 70 Q 88 85 85 100 L 35 100 Q 32 85 30 70 Q 25 50 25 32" fill="url(#hairI)"/>
  <!-- Face -->
  <ellipse cx="60" cy="68" rx="26" ry="31" fill="url(#skinI)"/>
  <!-- Ears -->
  <ellipse cx="34" cy="64" rx="5" ry="11" fill="url(#skinI)"/>
  <ellipse cx="86" cy="64" rx="5" ry="11" fill="url(#skinI)"/>
  <!-- Eyes focused methodical -->
  <ellipse cx="50" cy="62" rx="5" ry="6.5" fill="#1a1a2e"/>
  <ellipse cx="70" cy="62" rx="5" ry="6.5" fill="#1a1a2e"/>
  <circle cx="51" cy="60" r="1.5" fill="#ffffff"/>
  <circle cx="71" cy="60" r="1.5" fill="#ffffff"/>
  <!-- Eyebrows focused -->
  <path d="M 44 54 Q 50 52 56 54" stroke="#3A3A4A" stroke-width="1.2" fill="none" stroke-linecap="round"/>
  <path d="M 64 54 Q 70 52 76 54" stroke="#3A3A4A" stroke-width="1.2" fill="none" stroke-linecap="round"/>
  <!-- Nose -->
  <path d="M 60 64 L 60 76" stroke="#B8926A" stroke-width="1.2" fill="none"/>
  <!-- Mouth focused expression -->
  <path d="M 50 81 Q 60 83 70 81" stroke="#A67C5C" stroke-width="1.2" fill="none" stroke-linecap="round"/>
  <!-- Professional blazer -->
  <path d="M 28 92 L 30 86 L 38 82 L 60 80 L 82 82 L 90 86 L 92 92 L 92 120 L 28 120 Z" fill="#2a2a3e"/>
  <!-- Modern blouse detail -->
  <rect x="48" y="85" width="24" height="18" fill="#3a4a5e" rx="2"/>
  <!-- Blazer lapels accent -->
  <path d="M 48 86 L 52 82 L 56 86" fill="#2a2a3e" stroke="#F59E0B" stroke-width="0.8" opacity="0.5"/>
  <path d="M 72 86 L 68 82 L 64 86" fill="#2a2a3e" stroke="#F59E0B" stroke-width="0.8" opacity="0.5"/>
  <!-- Amber accent button/pin -->
  <circle cx="60" cy="91" r="1.8" fill="#F59E0B" opacity="0.7"/>
  <!-- Focused detail line -->
  <line x1="54" y1="88" x2="66" y2="88" stroke="#F59E0B" stroke-width="0.6" opacity="0.4"/>
</svg>
