<svg xmlns="http://www.w3.org/2000/svg" viewBox="0 0 120 120">
<defs><clipPath id="cb"><circle cx="60" cy="60" r="58"/></clipPath></defs>
<circle cx="60" cy="60" r="58" fill="#06B6D4"/>
<g clip-path="url(#cb)">
<circle cx="60" cy="45" r="22" fill="#F0D5C0"/>
<rect x="30" y="72" width="60" height="50" rx="8" fill="#CFFAFE"/>
<circle cx="50" cy="40" r="3.5" fill="#1E3A3A"/>
<circle cx="70" cy="40" r="3.5" fill="#1E3A3A"/>
<path d="M54 50 Q60 55 66 50" stroke="#D4956A" stroke-width="2" fill="none"/>
<path d="M32 35 Q38 14 60 16 Q82 14 88 35 L86 32 Q80 20 60 22 Q40 20 34 32Z" fill="#3B1F0F"/>
<rect x="78" y="78" width="14" height="18" rx="2" fill="#fff" stroke="#06B6D4" stroke-width="1.5"/>
<line x1="81" y1="83" x2="89" y2="83" stroke="#06B6D4" stroke-width="1"/>
<line x1="81" y1="87" x2="89" y2="87" stroke="#06B6D4" stroke-width="1"/>
<line x1="81" y1="91" x2="86" y2="91" stroke="#06B6D4" stroke-width="1"/>
</g>
</svg>
