<svg viewBox="0 0 120 120" xmlns="http://www.w3.org/2000/svg">
  <defs>
    <linearGradient id="skinM" x1="0%" y1="0%" x2="0%" y2="100%">
      <stop offset="0%" style="stop-color:#D4A574;stop-opacity:1" />
      <stop offset="100%" style="stop-color:#C89868;stop-opacity:1" />
    </linearGradient>
    <radialGradient id="bgM" cx="50%" cy="50%" r="50%">
      <stop offset="0%" style="stop-color:#8B5CF6;stop-opacity:0.2" />
      <stop offset="100%" style="stop-color:#0A0A0E;stop-opacity:1" />
    </radialGradient>
    <linearGradient id="hairM" x1="0%" y1="0%" x2="0%" y2="100%">
      <stop offset="0%" style="stop-color:#5A5A6E;stop-opacity:1" />
      <stop offset="100%" style="stop-color:#2A2A3E;stop-opacity:1" />
    </linearGradient>
  </defs>
  <circle cx="60" cy="60" r="60" fill="url(#bgM)"/>
  <path d="M 28 40 Q 28 28 60 28 Q 92 28 92 40 L 92 58 Q 75 52 60 52 Q 45 52 28 58 Z" fill="url(#hairM)"/>
  <ellipse cx="60" cy="68" rx="26" ry="30" fill="url(#skinM)"/>
  <ellipse cx="33" cy="62" rx="5.5" ry="11" fill="url(#skinM)"/>
  <ellipse cx="87" cy="62" rx="5.5" ry="11" fill="url(#skinM)"/>
  <ellipse cx="50" cy="62" rx="4.5" ry="5.5" fill="#1a1a2e"/>
  <ellipse cx="70" cy="62" rx="4.5" ry="5.5" fill="#1a1a2e"/>
  <circle cx="51" cy="60" r="1.2" fill="#ffffff"/>
  <circle cx="71" cy="60" r="1.2" fill="#ffffff"/>
  <path d="M 45 54 Q 50 52 55 54" stroke="#3A3A4A" stroke-width="1.2" fill="none" stroke-linecap="round"/>
  <path d="M 65 54 Q 70 52 75 54" stroke="#3A3A4A" stroke-width="1.2" fill="none" stroke-linecap="round"/>
  <rect x="43" y="57" width="11" height="9" rx="1.5" fill="none" stroke="#666677" stroke-width="1"/>
  <rect x="66" y="57" width="11" height="9" rx="1.5" fill="none" stroke="#666677" stroke-width="1"/>
  <line x1="54" y1="61.5" x2="66" y2="61.5" stroke="#666677" stroke-width="0.8"/>
  <path d="M 60 64 L 60 76" stroke="#B8926A" stroke-width="1.2" fill="none"/>
  <path d="M 50 81 Q 60 85 70 81" stroke="#A67C5C" stroke-width="1.2" fill="none" stroke-linecap="round"/>
  <path d="M 28 92 L 30 86 L 38 82 L 60 80 L 82 82 L 90 86 L 92 92 L 92 120 L 28 120 Z" fill="#1a1a28"/>
  <rect x="48" y="86" width="24" height="18" fill="#2a2a3e"/>
  <path d="M 55 90 L 60 86 L 65 90" fill="#8B5CF6" opacity="0.3"/>
  <rect x="56" y="92" width="8" height="10" fill="#8B5CF6" opacity="0.5" rx="0.5"/>
</svg>
