<svg viewBox="0 0 120 120" xmlns="http://www.w3.org/2000/svg">
  <defs>
    <linearGradient id="skinS" x1="0%" y1="0%" x2="0%" y2="100%">
      <stop offset="0%" style="stop-color:#D8A878;stop-opacity:1" />
      <stop offset="100%" style="stop-color:#C98F68;stop-opacity:1" />
    </linearGradient>
    <radialGradient id="bgS" cx="50%" cy="50%" r="50%">
      <stop offset="0%" style="stop-color:#7C5CFC;stop-opacity:0.2" />
      <stop offset="100%" style="stop-color:#0A0A0E;stop-opacity:1" />
    </radialGradient>
    <linearGradient id="hairS" x1="0%" y1="0%" x2="0%" y2="100%">
      <stop offset="0%" style="stop-color:#8B6F47;stop-opacity:1" />
      <stop offset="100%" style="stop-color:#6B5135;stop-opacity:1" />
    </linearGradient>
  </defs>
  <circle cx="60" cy="60" r="60" fill="url(#bgS)"/>
  <!-- Hair wavy -->
  <path d="M 28 38 Q 30 25 45 22 Q 60 20 75 22 Q 90 25 92 38 Q 80 35 60 35 Q 40 35 28 38" fill="url(#hairS)"/>
  <path d="M 25 38 Q 25 40 28 45 Q 30 50 35 52 Q 45 55 60 56 Q 75 55 85 52 Q 90 50 92 45 Q 95 40 95 38" fill="url(#hairS)" opacity="0.9"/>
  <!-- Face -->
  <ellipse cx="60" cy="68" rx="27" ry="31" fill="url(#skinS)"/>
  <!-- Ears -->
  <ellipse cx="33" cy="64" rx="5" ry="12" fill="url(#skinS)"/>
  <ellipse cx="87" cy="64" rx="5" ry="12" fill="url(#skinS)"/>
  <!-- Eyes warm and kind -->
  <ellipse cx="50" cy="63" rx="5" ry="6.5" fill="#1a1a2e"/>
  <ellipse cx="70" cy="63" rx="5" ry="6.5" fill="#1a1a2e"/>
  <circle cx="51" cy="61" r="1.5" fill="#ffffff"/>
  <circle cx="71" cy="61" r="1.5" fill="#ffffff"/>
  <!-- Eyebrows gentle -->
  <path d="M 45 55 Q 50 53 55 55" stroke="#3A3A4A" stroke-width="1.2" fill="none" stroke-linecap="round"/>
  <path d="M 65 55 Q 70 53 75 55" stroke="#3A3A4A" stroke-width="1.2" fill="none" stroke-linecap="round"/>
  <!-- Nose -->
  <path d="M 60 65 L 60 77" stroke="#BA956E" stroke-width="1.2" fill="none"/>
  <!-- Mouth warm smile -->
  <path d="M 48 82 Q 60 87 72 82" stroke="#A97C60" stroke-width="1.5" fill="none" stroke-linecap="round"/>
  <path d="M 48 82 Q 60 85 72 82" fill="#D4A574" opacity="0.3"/>
  <!-- Lab coat -->
  <path d="M 28 92 L 30 86 L 40 82 L 60 80 L 80 82 L 90 86 L 92 92 L 92 120 L 28 120 Z" fill="#F5F5F5"/>
  <!-- Necklace delicate -->
  <path d="M 54 88 Q 60 90 66 88" stroke="#D4AF37" stroke-width="1" fill="none"/>
  <circle cx="60" cy="91" r="1.2" fill="#D4AF37"/>
  <!-- Lab coat detail -->
  <line x1="35" y1="82" x2="35" y2="120" stroke="#E8E8E8" stroke-width="1" opacity="0.6"/>
  <line x1="85" y1="82" x2="85" y2="120" stroke="#E8E8E8" stroke-width="1" opacity="0.6"/>
  <!-- Accent color hint -->
  <rect x="48" y="88" width="24" height="2" fill="#7C5CFC" opacity="0.2" rx="1"/>
</svg>
